<svg id="Layer_1" data-name="Layer 1" xmlns="http://www.w3.org/2000/svg" viewBox="0 0 25 25"><defs><style>.cls-1{fill:#333;}.cls-2{fill:none;stroke:#333;stroke-linecap:round;stroke-linejoin:round;stroke-width:1.5px;}</style></defs><title>appointment icons</title><g id="details"><path class="cls-1" d="M17.46029,16.13864a7.26212,7.26212,0,0,1,5.44232,2.83067A7.26219,7.26219,0,0,1,17.46029,21.8,7.26224,7.26224,0,0,1,12.018,18.96933a7.26217,7.26217,0,0,1,5.44233-2.83069m0-1.5a8.7953,8.7953,0,0,0-6.78506,3.59964,1.17666,1.17666,0,0,0,0,1.46208A8.79534,8.79534,0,0,0,17.46029,23.3a8.79535,8.79535,0,0,0,6.78506-3.59964,1.17666,1.17666,0,0,0,0-1.46208,8.7953,8.7953,0,0,0-6.78506-3.59964Z"/><path class="cls-1" d="M17.46029,17.61932a1.35,1.35,0,1,0,1.35,1.35,1.35,1.35,0,0,0-1.35-1.35Z"/><line class="cls-2" x1="4.7" y1="16.1" x2="9.2" y2="16.1"/><line class="cls-2" x1="4.7" y1="12.5" x2="14.3" y2="12.5"/><line class="cls-2" x1="4.7" y1="8.9" x2="14.3" y2="8.9"/><line class="cls-2" x1="4.7" y1="5.3" x2="14.3" y2="5.3"/><line class="cls-2" x1="4.7" y1="19.7" x2="7.7" y2="19.7"/><path class="cls-1" d="M16.1.5H2.9A2.4,2.4,0,0,0,.5,2.9V22.1a2.4,2.4,0,0,0,2.4,2.4h9.00059v-.00015a.74985.74985,0,0,0,0-1.49969V23H2.9a.90107.90107,0,0,1-.9-.9V2.9A.901.901,0,0,1,2.9,2H16.1a.901.901,0,0,1,.9.9v9.6a.75.75,0,0,0,1.5,0V2.9A2.39993,2.39993,0,0,0,16.1.5Z"/></g></svg>