<svg id="Layer_1" data-name="Layer 1" xmlns="http://www.w3.org/2000/svg" viewBox="0 0 33 33"><defs><style>.cls-1{fill:#999;}.cls-2{fill:#fff;}</style></defs><title>list</title><g id="dp"><circle class="cls-1" cx="16.5" cy="16.5" r="16"/><path class="cls-2" d="M16.50029,30.65813A14.09733,14.09733,0,0,1,7.356,27.3001c4.14885-1.37663,5.68362-3.05141,6.251-4.16734a6.7453,6.7453,0,0,0,2.65129.53954H16.472a6.7732,6.7732,0,0,0,2.84664-.63268c.53,1.1164,2.0371,2.84652,6.30677,4.26048a14.0279,14.0279,0,0,1-9.12515,3.358Z"/><path class="cls-2" d="M11.32806,13.54191v-.05581c.223-4.84653,3.79548-5.228,4.89281-5.228h.298c1.08826,0,4.66978.38152,4.89281,5.228v.05581c.00953.04639.46512,4.53037-1.62791,6.88363a4.30277,4.30277,0,0,1-3.37664,1.40489h-.05593a4.31822,4.31822,0,0,1-3.37664-1.40489c-2.10257-2.33466-1.65605-6.83724-1.64652-6.88363Z"/></g></svg>